<svg width="1074" height="149" viewBox="0 0 1074 149" fill="none" xmlns="http://www.w3.org/2000/svg">
<path d="M1033.61 3C1038.21 3.00003 1042.92 3.49993 1047.11 5.60645C1055.17 9.66348 1068 19.2341 1068 39C1068 53.3314 1064.6 62.0569 1061.17 67.2148C1059.45 69.7919 1057.72 71.4707 1056.42 72.5088C1056.13 72.7371 1056.25 73.2231 1056.6 73.3033C1056.76 73.3388 1056.93 73.3784 1057.1 73.4229C1058.94 73.9086 1061.39 74.9418 1063.83 77.127C1068.73 81.5057 1073.5 90.4181 1073.5 108.5C1073.5 117.578 1071.45 124.419 1068.35 129.57C1065.25 134.72 1061.12 138.153 1056.99 140.438C1052.87 142.721 1048.75 143.859 1045.67 144.429C1044.13 144.714 1042.84 144.856 1041.94 144.928C1041.48 144.963 1041.13 144.982 1040.88 144.991C1040.76 144.996 1040.67 144.998 1040.6 144.999C1040.57 145 1040.55 145 1040.53 145H962C959.791 145 958 143.209 958 141V7C958 4.79086 959.791 3 962 3H1033.61ZM981.5 121C981.5 122.105 982.395 123 983.5 123H1032.5C1032.5 123 1050.5 125 1050.5 104C1050.5 83 1032.5 83 1032.5 83H985.5C983.291 83 981.5 84.7909 981.5 87V121ZM1046.5 43.0996C1046.5 23.7609 1029.65 25.5355 1029.54 25.5469H996.5C988.216 25.5469 981.5 32.2628 981.5 40.5469V58.5C981.5 60.7091 983.291 62.5 985.5 62.5H1029.54C1029.65 62.4998 1046.5 62.441 1046.5 43.0996Z" fill="#5D5D5D"/>
<path d="M818.315 145H801.08C798.205 145 796.269 142.057 797.407 139.416L854.958 5.91649C855.59 4.44995 857.034 3.5 858.631 3.5H872.351C873.957 3.5 875.407 4.46018 876.034 5.93847L932.642 139.438C933.76 142.076 931.824 145 928.959 145H912.662C911.049 145 909.595 144.032 908.972 142.545L867.798 44.1852C866.766 41.7192 863.267 41.7331 862.255 44.2072L822.017 142.515C821.402 144.018 819.939 145 818.315 145Z" fill="#5D5D5D"/>
<path d="M707 123.5H775C777.209 123.5 779 125.291 779 127.5V140.019C779 142.221 777.221 144.009 775.019 144.019L680.019 144.48C677.803 144.491 676 142.697 676 140.481V7.5C676 5.29086 677.791 3.5 680 3.5H696C698.209 3.5 700 5.29086 700 7.5V116.5C700 120.366 703.134 123.5 707 123.5Z" fill="#5D5D5D"/>
<path d="M316 144.5H300C297.791 144.5 296 142.709 296 140.5V8C296 5.79086 297.791 4 300 4H376.5C376.5 4 412 8 412 49.5C412 78.2254 395.95 87.3072 386.069 90.1766C382.956 91.0803 381.125 95.1134 383.029 97.7354L412.387 138.149C414.307 140.793 412.418 144.5 409.15 144.5H392.58C391.276 144.5 390.054 143.864 389.305 142.797L345.521 80.3711C343.197 77.0577 345.567 72.5 349.614 72.5H366C366 72.5 389 74 388.5 49.5C388 25 366 25 366 25H324C321.791 25 320 26.7909 320 29V140.5C320 142.709 318.209 144.5 316 144.5Z" fill="black"/>
<path d="M466.011 73C465.606 113.93 491.798 123 501.739 124.968C503.83 125.382 505.5 127.173 505.5 129.305V144.344C505.5 146.613 503.628 148.394 501.38 148.082C487.031 146.088 440.164 134.84 441.011 73C442.011 0 518.511 0 518.511 0C518.511 0 589.011 0 590.011 73C590.86 134.989 542.669 146.142 528.111 148.096C525.863 148.398 524 146.616 524 144.348V129.314C524 127.179 525.673 125.388 527.773 125.002C538.09 123.105 566.011 114.169 566.011 73C566.011 22.5 518.511 22.5 518.511 22.5C518.511 22.5 466.511 22.5 466.011 73Z" fill="black"/>
<path d="M253 146H152V7.5C152 5.29086 153.791 3.5 156 3.5H253C255.209 3.5 257 5.29086 257 7.5V13.4722C257 14.7468 256.392 15.9452 255.364 16.6986L244.306 24.8024C243.62 25.305 242.792 25.576 241.941 25.576H179.886C177.677 25.576 175.886 27.3668 175.886 29.576V60.212C175.886 62.4212 177.677 64.212 179.886 64.212H234.25C236.459 64.212 238.25 66.0029 238.25 68.212V80.7845C238.25 82.9936 236.459 84.7845 234.25 84.7845H179.886C177.677 84.7845 175.886 86.5753 175.886 88.7845V114.922C175.886 119.893 179.916 123.922 184.886 123.922H253C255.209 123.922 257 125.713 257 127.922V142C257 144.209 255.209 146 253 146Z" fill="black"/>
<path d="M57.9102 85.9102C59.3759 87.3759 59.4791 89.7185 58.1479 91.3075L40.5078 112.362C36.1454 117.569 39.847 125.5 46.6396 125.5H103.286C104.38 125.5 105.427 125.949 106.182 126.741L113.897 134.841C114.605 135.585 115 136.573 115 137.6V141.5C115 143.709 113.209 145.5 111 145.5H4C1.79086 145.5 0 143.709 0 141.5V127.003C0 126.034 0.351673 125.098 0.989693 124.369L42.6845 76.7177C44.2082 74.9763 46.8871 74.8871 48.5233 76.5233L57.9102 85.9102ZM111 3.5C113.209 3.5 115 5.29086 115 7.5V21.9971C115 22.966 114.648 23.9019 114.01 24.6311L72.3155 72.2823C70.7918 74.0237 68.1129 74.1129 66.4767 72.4767L57.0898 63.0898C55.6241 61.6241 55.5209 59.2815 56.8522 57.6925L82.748 26.7842C83.8385 25.4825 82.913 23.5 81.2148 23.5H11.7143C10.6196 23.5 9.5727 23.0513 8.81773 22.2586L1.10345 14.1586C0.395099 13.4149 0 12.4271 0 11.4V7.5C0 5.29086 1.79086 3.5 4 3.5H111Z" fill="#FF8800"/>
</svg>
